<svg xmlns="http://www.w3.org/2000/svg" viewBox="-356 234.3 128 128"><path fill="white" d="M-261.2 296.9c2.7 0 4.9 2.2 4.9 4.9v38.1c0 2.7-2.2 4.9-4.9 4.9s-4.9-2.2-4.9-4.9v-38.1c0-2.7 2.2-4.9 4.9-4.9zM-295.9 236.7l-38.5 38.5c-1.9 1.9-1.9 5 0 7 1.9 1.9 5 1.9 7 0l31.5-31.5c1.9-1.9 5-1.9 7 0l31.5 31.5c1.9 1.9 5 1.9 7 0 1.9-1.9 1.9-5 0-7l-38.5-38.5c-1.9-1.9-5-1.9-7 0zM-323 296.9c2.7 0 4.9 2.2 4.9 4.9v38.1c0 2.7-2.2 4.9-4.9 4.9s-4.9-2.2-4.9-4.9v-38.1c0-2.7 2.2-4.9 4.9-4.9zM-292 309.8c2.7 0 4.9 2.2 4.9 4.9v25.1c0 2.7-2.2 4.9-4.9 4.9s-4.9-2.2-4.9-4.9v-25.1c-.1-2.7 2.1-4.9 4.9-4.9z"/></svg>