<?xml version="1.0" encoding="utf-8"?>
<!-- Generator: Adobe Illustrator 19.1.0, SVG Export Plug-In . SVG Version: 6.00 Build 0)  -->
<svg version="1.1" xmlns="http://www.w3.org/2000/svg" xmlns:xlink="http://www.w3.org/1999/xlink" viewBox="0 0 482 482" xml:space="preserve">
<path d="M255 209c-5 6-5 14 0 19 22 22 22 58 0 80L140 423a56 56 0 0 1-79 0l-18-17a56 56 0 0 1 0-80l115-115c6-5 6-14 1-19s-14-5-20 0L24 307a83 83 0 0 0 0 118l18 17a83 83 0 0 0 117 0l115-115c33-32 33-85 0-118-5-5-13-5-19 0zM459 58l-18-17a83 83 0 0 0-117 0L209 156a83 83 0 0 0 0 117c5 6 13 6 19 1s5-14 0-20a56 56 0 0 1 0-79L343 60c22-22 57-22 79 0l17 17c22 22 22 58 0 80L324 272c-5 5-5 13 0 19 3 2 7 4 10 4s7-1 9-4l115-115a83 83 0 0 0 1-118z"/>
</svg>